<svg width="19" height="20" viewBox="0 0 19 20" fill="none" xmlns="http://www.w3.org/2000/svg">
<g clip-path="url(#clip0_1_285)">
<path d="M16.9299 8.555H1.54987C1.28465 8.555 1.0303 8.44964 0.842763 8.2621C0.655226 8.07457 0.54987 7.82021 0.54987 7.555V6.655C0.541978 6.47625 0.579034 6.29838 0.657649 6.13766C0.736263 5.97694 0.853925 5.8385 0.99987 5.735L8.72987 1.465C8.88421 1.38439 9.05575 1.34229 9.22987 1.34229C9.40399 1.34229 9.57553 1.38439 9.72987 1.465L17.4399 5.735C17.6025 5.82771 17.7379 5.96147 17.8327 6.1229C17.9275 6.28434 17.9782 6.46781 17.9799 6.655V7.505C17.9871 7.64478 17.9648 7.78451 17.9146 7.91516C17.8644 8.0458 17.7873 8.16445 17.6883 8.26342C17.5893 8.36239 17.4707 8.43949 17.34 8.48971C17.2094 8.53994 17.0697 8.56218 16.9299 8.555Z" stroke="white" stroke-linecap="round" stroke-linejoin="round"/>
<path d="M11.18 11.295H17.41C17.5595 11.2895 17.7052 11.3431 17.8156 11.4441C17.926 11.5452 17.9922 11.6856 18 11.835V18.065C17.9974 18.2154 17.9365 18.3589 17.8302 18.4652C17.7239 18.5716 17.5804 18.6324 17.43 18.635H1.18C1.00046 18.6324 0.828994 18.5599 0.702025 18.433C0.575056 18.306 0.502584 18.1345 0.5 17.955V11.955C0.5 11.7747 0.571643 11.6017 0.699167 11.4742C0.826692 11.3466 0.999653 11.275 1.18 11.275H7.18" stroke="white" stroke-linecap="round" stroke-linejoin="round"/>
</g>
<defs>
<clipPath id="clip0_1_285">
<rect width="18.48" height="18.33" fill="white" transform="translate(0 0.834999)"/>
</clipPath>
</defs>
</svg>
