<svg width="19" height="20" viewBox="0 0 19 20" fill="none" xmlns="http://www.w3.org/2000/svg">
<g opacity="0.5" clip-path="url(#clip0_1_300)">
<path d="M17.9999 8.64001V1.26001H15.8599C14.4666 1.26266 13.1312 1.818 12.1469 2.80416C11.1627 3.79031 10.6099 5.1267 10.6099 6.52001V13.76H14.0999" stroke="white" stroke-linecap="round" stroke-linejoin="round"/>
<path d="M6.12988 18.74V10.3" stroke="white" stroke-linecap="round" stroke-linejoin="round"/>
<path d="M2.25 13.76V18.06C2.25 18.44 2.41 18.74 2.61 18.74H6.13" stroke="white" stroke-linecap="round" stroke-linejoin="round"/>
<path d="M14.68 18.76H17.41C17.5611 18.76 17.7061 18.7 17.813 18.5931C17.9199 18.4862 17.98 18.3412 17.98 18.19V11.94C17.9774 11.7896 17.9165 11.6461 17.8102 11.5398C17.7038 11.4335 17.5603 11.3726 17.41 11.37H14.68C14.5279 11.37 14.3818 11.4297 14.2733 11.5363C14.1648 11.643 14.1026 11.7879 14.1 11.94V18.17C14.0972 18.2474 14.1103 18.3245 14.1383 18.3966C14.1664 18.4688 14.2089 18.5345 14.2631 18.5897C14.3174 18.6449 14.3823 18.6885 14.454 18.7178C14.5257 18.747 14.6026 18.7614 14.68 18.76V18.76Z" stroke="white" stroke-linecap="round" stroke-linejoin="round"/>
<path d="M4.77012 10.61H3.60012C2.77795 10.61 1.98945 10.2834 1.40809 9.70205C0.826724 9.12068 0.500117 8.33219 0.500117 7.51002L0.500117 5.57002C0.502758 4.42774 0.957694 3.33301 1.7654 2.5253C2.57311 1.71759 3.66785 1.26266 4.81012 1.26002V1.26002C5.61995 1.26001 6.39676 1.58103 6.97034 2.15273C7.54391 2.72443 7.86747 3.50019 7.87012 4.31002L7.87012 7.51002C7.87012 8.33219 7.54351 9.12068 6.96215 9.70205C6.38079 10.2834 5.59229 10.61 4.77012 10.61V10.61Z" stroke="white" stroke-linecap="round" stroke-linejoin="round"/>
</g>
<defs>
<clipPath id="clip0_1_300">
<rect width="18.48" height="18.48" fill="white" transform="translate(0 0.76001)"/>
</clipPath>
</defs>
</svg>
