<svg width="19" height="22" viewBox="0 0 19 22" fill="none" xmlns="http://www.w3.org/2000/svg">
<g opacity="0.5" clip-path="url(#clip0_1_337)">
<path d="M17.98 2.23001H6.75" stroke="white" stroke-linecap="round" stroke-linejoin="round"/>
<path d="M3.29 2.23001H0.5" stroke="white" stroke-linecap="round" stroke-linejoin="round"/>
<path d="M4.5 9.60001H0.5" stroke="white" stroke-linecap="round" stroke-linejoin="round"/>
<path d="M17.9799 12.34H14.8799" stroke="white" stroke-linecap="round" stroke-linejoin="round"/>
<path d="M8.79 12.34H0.5" stroke="white" stroke-linecap="round" stroke-linejoin="round"/>
<path d="M17.9802 19.71H10.9702" stroke="white" stroke-linecap="round" stroke-linejoin="round"/>
<path d="M7.5 19.71H0.5" stroke="white" stroke-linecap="round" stroke-linejoin="round"/>
<path d="M5.02004 3.96C5.97549 3.96 6.75004 3.18545 6.75004 2.23C6.75004 1.27455 5.97549 0.5 5.02004 0.5C4.06459 0.5 3.29004 1.27455 3.29004 2.23C3.29004 3.18545 4.06459 3.96 5.02004 3.96Z" stroke="white" stroke-linecap="round" stroke-linejoin="round"/>
<path d="M9.23977 21.44C10.1952 21.44 10.9698 20.6655 10.9698 19.71C10.9698 18.7546 10.1952 17.98 9.23977 17.98C8.28431 17.98 7.50977 18.7546 7.50977 19.71C7.50977 20.6655 8.28431 21.44 9.23977 21.44Z" stroke="white" stroke-linecap="round" stroke-linejoin="round"/>
<path d="M11.8302 14.3C13.6859 14.3 15.1902 12.7957 15.1902 10.94C15.1902 9.08431 13.6859 7.57999 11.8302 7.57999C9.97454 7.57999 8.47021 9.08431 8.47021 10.94C8.47021 12.7957 9.97454 14.3 11.8302 14.3Z" stroke="white" stroke-linecap="round" stroke-linejoin="round"/>
</g>
<defs>
<clipPath id="clip0_1_337">
<rect width="18.48" height="21.95" fill="white"/>
</clipPath>
</defs>
</svg>
