<svg width="19" height="20" viewBox="0 0 19 20" fill="none" xmlns="http://www.w3.org/2000/svg">
<g opacity="0.5" clip-path="url(#clip0_1_291)">
<path d="M7.3 1.26001H1.07C0.755198 1.26001 0.5 1.51521 0.5 1.83001V8.06001C0.5 8.37481 0.755198 8.63001 1.07 8.63001H7.3C7.6148 8.63001 7.87 8.37481 7.87 8.06001V1.83001C7.87 1.51521 7.6148 1.26001 7.3 1.26001Z" stroke="white" stroke-linecap="round" stroke-linejoin="round"/>
<path d="M14.8799 1.26001H13.7099C11.9978 1.26001 10.6099 2.64793 10.6099 4.36001V5.53001C10.6099 7.24209 11.9978 8.63001 13.7099 8.63001H14.8799C16.5919 8.63001 17.9799 7.24209 17.9799 5.53001V4.36001C17.9799 2.64793 16.5919 1.26001 14.8799 1.26001Z" stroke="white" stroke-linecap="round" stroke-linejoin="round"/>
<path d="M7.87007 18.76H1.18007C1.08946 18.7587 0.999988 18.7396 0.916772 18.7037C0.833555 18.6678 0.758223 18.6159 0.695077 18.5509C0.631932 18.4859 0.582209 18.4091 0.54875 18.3248C0.515291 18.2406 0.498751 18.1506 0.500074 18.06V12.06C0.500074 11.8797 0.571716 11.7067 0.699241 11.5792C0.826766 11.4517 0.999726 11.38 1.18007 11.38H7.18007C7.26974 11.3787 7.35877 11.3953 7.44189 11.429C7.525 11.4627 7.6005 11.5128 7.66391 11.5762C7.72733 11.6396 7.77736 11.7151 7.81106 11.7982C7.84475 11.8813 7.86142 11.9703 7.86007 12.06V14.9" stroke="white" stroke-linecap="round" stroke-linejoin="round"/>
<path d="M17.4099 11.37H11.1799C10.8651 11.37 10.6099 11.6252 10.6099 11.94V18.17C10.6099 18.4848 10.8651 18.74 11.1799 18.74H17.4099C17.7247 18.74 17.9799 18.4848 17.9799 18.17V11.94C17.9799 11.6252 17.7247 11.37 17.4099 11.37Z" stroke="white" stroke-linecap="round" stroke-linejoin="round"/>
</g>
<defs>
<clipPath id="clip0_1_291">
<rect width="18.48" height="18.48" fill="white" transform="translate(0 0.76001)"/>
</clipPath>
</defs>
</svg>
