<svg width="19" height="19" viewBox="0 0 19 19" fill="none" xmlns="http://www.w3.org/2000/svg">
<g opacity="0.5" clip-path="url(#clip0_1_323)">
<path d="M9.8198 0.928757H8.6498C6.93772 0.928757 5.5498 2.31667 5.5498 4.02876V5.19876C5.5498 6.91084 6.93772 8.29876 8.6498 8.29876H9.8198C11.5319 8.29876 12.9198 6.91084 12.9198 5.19876V4.02876C12.9198 2.31667 11.5319 0.928757 9.8198 0.928757Z" stroke="white" stroke-linecap="round" stroke-linejoin="round"/>
<path d="M5.55 18.4088H1.18C0.8 18.4088 0.5 18.0988 0.5 17.7288V14.6088C0.5 12.6388 2.1 11.0388 4.07 11.0388H14.52C16.43 11.0388 17.98 12.5888 17.98 14.4988V17.8388C17.98 18.1588 17.72 18.4088 17.41 18.4088H11.18C10.86 18.4088 10.61 18.1488 10.61 17.8388V15.8988" stroke="white" stroke-linecap="round" stroke-linejoin="round"/>
</g>
<defs>
<clipPath id="clip0_1_323">
<rect width="18.48" height="18.48" fill="white" transform="translate(0 0.428757)"/>
</clipPath>
</defs>
</svg>
